<svg width="1200" height="320" viewBox="0 0 1200 320" xmlns="http://www.w3.org/2000/svg">
  <rect width="1200" height="320" fill="#0B0F14"/>
  <text x="60" y="60" fill="#F3F4F6" font-size="28" font-family="Segoe UI, Arial, sans-serif">
    Migrations Flow
  </text>

  <g font-family="Segoe UI, Arial, sans-serif" font-size="16" fill="#E5E7EB">
    <rect x="60" y="110" width="200" height="50" rx="10" fill="#0F172A" stroke="#22D3EE" stroke-width="2"/>
    <text x="90" y="140">Model Changes</text>

    <rect x="300" y="110" width="200" height="50" rx="10" fill="#0F172A" stroke="#22D3EE" stroke-width="2"/>
    <text x="330" y="140">Premix::sync</text>

    <rect x="540" y="110" width="240" height="50" rx="10" fill="#0F172A" stroke="#22D3EE" stroke-width="2"/>
    <text x="565" y="140">CREATE/ALTER SQL</text>

    <rect x="820" y="110" width="150" height="50" rx="10" fill="#0F172A" stroke="#22D3EE" stroke-width="2"/>
    <text x="865" y="140">Database</text>
  </g>

  <g font-family="Segoe UI, Arial, sans-serif" font-size="16" fill="#E5E7EB">
    <rect x="300" y="200" width="200" height="50" rx="10" fill="#0F172A" stroke="#94A3B8" stroke-width="2"/>
    <text x="325" y="230">premix migrate</text>

    <rect x="540" y="200" width="240" height="50" rx="10" fill="#0F172A" stroke="#94A3B8" stroke-width="2"/>
    <text x="565" y="230">SQL Migration Files</text>

    <rect x="820" y="200" width="150" height="50" rx="10" fill="#0F172A" stroke="#94A3B8" stroke-width="2"/>
    <text x="860" y="230">migrate up</text>
  </g>

  <g stroke="#9CA3AF" stroke-width="2" marker-end="url(#arrow)">
    <line x1="260" y1="135" x2="300" y2="135"/>
    <line x1="500" y1="135" x2="540" y2="135"/>
    <line x1="780" y1="135" x2="820" y2="135"/>

    <line x1="260" y1="135" x2="300" y2="225"/>
    <line x1="500" y1="225" x2="540" y2="225"/>
    <line x1="780" y1="225" x2="820" y2="225"/>
    <line x1="970" y1="225" x2="970" y2="160"/>
  </g>

  <defs>
    <marker id="arrow" markerWidth="10" markerHeight="10" refX="6" refY="3" orient="auto">
      <path d="M0,0 L6,3 L0,6" fill="#9CA3AF"/>
    </marker>
  </defs>
</svg>
